<svg xmlns="http://www.w3.org/2000/svg" viewBox="0 0 1024 1024" role="img" aria-label="民进反诈公益小鸭子 logo">
  <defs>
    <linearGradient id="bg" x1="128" x2="896" y1="72" y2="952" gradientUnits="userSpaceOnUse">
      <stop offset="0" stop-color="#19c6ff"/>
      <stop offset=".52" stop-color="#1185f5"/>
      <stop offset="1" stop-color="#0756c9"/>
    </linearGradient>
    <linearGradient id="shield" x1="278" x2="762" y1="160" y2="818" gradientUnits="userSpaceOnUse">
      <stop offset="0" stop-color="#95dcff"/>
      <stop offset=".55" stop-color="#2497f4"/>
      <stop offset="1" stop-color="#0754c5"/>
    </linearGradient>
    <radialGradient id="duck" cx="42%" cy="28%" r="72%">
      <stop offset="0" stop-color="#fff872"/>
      <stop offset=".43" stop-color="#ffd926"/>
      <stop offset=".78" stop-color="#ffb414"/>
      <stop offset="1" stop-color="#f28a00"/>
    </radialGradient>
    <linearGradient id="beak" x1="428" x2="606" y1="456" y2="557" gradientUnits="userSpaceOnUse">
      <stop offset="0" stop-color="#ffb33c"/>
      <stop offset="1" stop-color="#f46c12"/>
    </linearGradient>
    <linearGradient id="redGold" x1="398" x2="676" y1="494" y2="747" gradientUnits="userSpaceOnUse">
      <stop offset="0" stop-color="#f94833"/>
      <stop offset=".68" stop-color="#c51e1c"/>
      <stop offset="1" stop-color="#941313"/>
    </linearGradient>
    <linearGradient id="page" x1="0" x2="1">
      <stop offset="0" stop-color="#fff6d7"/>
      <stop offset="1" stop-color="#f7d88f"/>
    </linearGradient>
    <filter id="softShadow" x="-20%" y="-20%" width="140%" height="150%">
      <feDropShadow dx="0" dy="22" stdDeviation="22" flood-color="#003477" flood-opacity=".25"/>
    </filter>
    <filter id="innerGlow" x="-10%" y="-10%" width="120%" height="120%">
      <feGaussianBlur in="SourceAlpha" stdDeviation="3" result="blur"/>
      <feOffset dy="2"/>
      <feComposite in2="SourceAlpha" operator="arithmetic" k2="-1" k3="1"/>
      <feColorMatrix values="0 0 0 0 1 0 0 0 0 .95 0 0 0 0 .45 0 0 0 .42 0"/>
      <feComposite in2="SourceGraphic" operator="over"/>
    </filter>
  </defs>

  <rect width="1024" height="1024" rx="188" fill="url(#bg)"/>
  <path d="M512 82c134 84 246 121 367 135 20 262-95 490-367 656-272-166-387-394-367-656 121-14 233-51 367-135Z" fill="#fff" opacity=".96"/>
  <path d="M512 130c116 72 216 105 324 120 11 226-88 424-324 572-236-148-335-346-324-572 108-15 208-48 324-120Z" fill="url(#shield)"/>
  <path d="M512 178c96 58 181 87 274 102 4 188-77 353-274 482-197-129-278-294-274-482 93-15 178-44 274-102Z" fill="#dff4ff" opacity=".28"/>
  <path d="M292 332c147-58 296-58 440 0M248 457c174-77 352-77 528 0M278 596c156 67 311 67 468 0" fill="none" stroke="#fff" stroke-width="7" stroke-linecap="round" opacity=".18"/>

  <g filter="url(#softShadow)">
    <ellipse cx="512" cy="712" rx="236" ry="234" fill="url(#duck)"/>
    <path d="M310 658c-42 45-56 93-42 141 14 47 61 70 109 53 41-15 58-61 41-101-17-39-57-78-108-93Z" fill="#ffcf25"/>
    <path d="M716 654c52 19 91 57 101 103 10 48-18 88-64 96-49 8-88-20-91-66-3-45 18-91 54-133Z" fill="#ffbd19"/>

    <path d="M352 576c84 62 193 92 327 91 24 0 42 20 36 44l-19 74c-8 32-42 52-74 44-91-24-176-59-257-104-37-21-54-66-39-106l26-43Z" fill="url(#redGold)"/>
    <path d="M344 586c82 54 194 81 331 80" fill="none" stroke="#ffd75f" stroke-width="14" stroke-linecap="round" opacity=".74"/>

    <circle cx="512" cy="390" r="218" fill="url(#duck)"/>
    <path d="M409 186c16-71 80-93 134-50-54 14-85 42-93 88 45-52 110-50 152-6-73 4-114 32-137 80-23-41-48-74-56-112Z" fill="#ffe047"/>
    <path d="M340 372c25-126 134-205 265-183 73 12 128 49 162 101-38-87-133-142-246-142-146 0-254 95-281 221-5 25 95 27 100 3Z" fill="#fff46a" opacity=".44"/>

    <ellipse cx="426" cy="404" rx="52" ry="68" fill="#fff"/>
    <ellipse cx="595" cy="404" rx="52" ry="68" fill="#fff"/>
    <ellipse cx="435" cy="414" rx="31" ry="43" fill="#2b150c"/>
    <ellipse cx="586" cy="414" rx="31" ry="43" fill="#2b150c"/>
    <circle cx="447" cy="384" r="13" fill="#fff"/>
    <circle cx="598" cy="384" r="13" fill="#fff"/>
    <path d="M378 339c33-24 63-24 91 0M551 339c34-24 65-22 94 4" fill="none" stroke="#6b2d08" stroke-width="15" stroke-linecap="round"/>

    <ellipse cx="378" cy="493" rx="38" ry="24" fill="#ff9d21" opacity=".45"/>
    <ellipse cx="648" cy="493" rx="38" ry="24" fill="#ff9d21" opacity=".45"/>
    <path d="M425 478c33 34 68 47 105 39 26-6 52-22 75-48 16-18 7-48-17-50-44-3-105-3-149 1-29 3-35 36-14 58Z" fill="url(#beak)"/>
    <path d="M461 509c36 26 83 25 118-4-16 47-94 50-118 4Z" fill="#9e1a12" opacity=".55"/>
    <path d="M436 452c48 17 100 17 152 0" fill="none" stroke="#ffe07a" stroke-width="10" stroke-linecap="round" opacity=".5"/>

    <g transform="rotate(-11 277 602)">
      <path d="M158 522c75-34 126-28 175 9l-11 176c-54-38-108-40-179-9l15-176Z" fill="#d2231f"/>
      <path d="M329 531c58-31 112-30 171 4l-13 176c-57-33-112-35-169-4l11-176Z" fill="#c91f1d"/>
      <path d="M174 540c61-21 105-15 146 17l-9 128c-46-31-92-34-147-10l10-135Z" fill="url(#page)"/>
      <path d="M338 554c46-22 88-21 132 4l-10 127c-44-21-87-22-132-1l10-130Z" fill="url(#page)"/>
      <path d="M326 536l-14 168" stroke="#8f1515" stroke-width="8" stroke-linecap="round"/>
      <path d="M205 587c34-10 62-7 87 8M199 625c35-11 63-8 86 8M366 594c29-9 54-8 79 4M362 631c29-8 55-7 78 4" stroke="#d6a948" stroke-width="8" stroke-linecap="round" opacity=".72"/>
    </g>

    <path d="M318 593c-34 0-60 24-60 56 0 35 29 58 63 50 25-6 39-25 36-50l-39-56Z" fill="#ffd423"/>
    <path d="M305 642c13-8 28-8 43 0" fill="none" stroke="#ed9f00" stroke-width="9" stroke-linecap="round" opacity=".55"/>

    <g transform="rotate(12 747 590)">
      <rect x="646" y="494" width="203" height="192" rx="21" fill="#211b1b"/>
      <rect x="674" y="524" width="48" height="55" rx="7" fill="#56b7ff"/>
      <rect x="737" y="524" width="48" height="55" rx="7" fill="#56b7ff"/>
      <rect x="800" y="524" width="22" height="55" rx="7" fill="#56b7ff"/>
      <rect x="674" y="602" width="48" height="55" rx="7" fill="#fff4c8"/>
      <rect x="737" y="602" width="48" height="55" rx="7" fill="#fff4c8"/>
      <rect x="800" y="602" width="22" height="55" rx="7" fill="#fff4c8"/>
      <g fill="#f5f1dc">
        <rect x="656" y="508" width="12" height="14" rx="3"/>
        <rect x="656" y="538" width="12" height="14" rx="3"/>
        <rect x="656" y="568" width="12" height="14" rx="3"/>
        <rect x="656" y="598" width="12" height="14" rx="3"/>
        <rect x="656" y="628" width="12" height="14" rx="3"/>
        <rect x="827" y="508" width="12" height="14" rx="3"/>
        <rect x="827" y="538" width="12" height="14" rx="3"/>
        <rect x="827" y="568" width="12" height="14" rx="3"/>
        <rect x="827" y="598" width="12" height="14" rx="3"/>
        <rect x="827" y="628" width="12" height="14" rx="3"/>
      </g>
      <path d="M709 632l23 22 48-52" fill="none" stroke="#d92520" stroke-width="15" stroke-linecap="round" stroke-linejoin="round"/>
    </g>

    <path d="M708 587c37-2 66 21 69 54 2 35-24 61-59 60-29-1-48-20-51-49l41-65Z" fill="#ffc81f"/>
    <path d="M711 646c15-8 31-7 47 2" fill="none" stroke="#ed9f00" stroke-width="9" stroke-linecap="round" opacity=".55"/>

    <g filter="url(#innerGlow)">
      <circle cx="516" cy="628" r="83" fill="#ffd83d"/>
      <circle cx="516" cy="628" r="68" fill="#d91f1c"/>
      <path d="M461 606c32-23 69-23 111 0M458 640c34-18 72-18 116 0M472 673c27-11 58-11 88 0" fill="none" stroke="#ffe553" stroke-width="15" stroke-linecap="round"/>
      <path d="M516 560c19 24 19 49 0 75-19-26-19-51 0-75Z" fill="#ffe553"/>
      <text x="516" y="627" text-anchor="middle" font-size="42" font-weight="800" font-family="Microsoft YaHei, SimHei, sans-serif" fill="#ffe553">民进</text>
    </g>
  </g>

  <path d="M213 274l13 27 29 4-21 21 5 29-26-14-26 14 5-29-21-21 29-4 13-27ZM818 334l11 23 25 4-18 17 4 25-22-12-22 12 4-25-18-17 25-4 11-23Z" fill="#fff" opacity=".9"/>
</svg>
